<?xml version="1.0" encoding="us-ascii" standalone="no"?><svg xmlns="http://www.w3.org/2000/svg" xmlns:xlink="http://www.w3.org/1999/xlink" contentStyleType="text/css" height="787px" preserveAspectRatio="none" style="width:1109px;height:787px;background:#FFFFFF;" version="1.1" viewBox="0 0 1109 787" width="1109px" zoomAndPan="magnify"><defs/><g><!--class BLEServer--><g id="elem_BLEServer"><rect codeLine="1" fill="#F1F1F1" height="96.8906" id="BLEServer" rx="2.5" ry="2.5" style="stroke:#181818;stroke-width:0.5;" width="344" x="352" y="180"/><ellipse cx="482.75" cy="196" fill="#ADD1B2" rx="11" ry="11" style="stroke:#181818;stroke-width:1.0;"/><path d="M485.0938,191.6719 C484.1563,191.2344 483.5625,191.0938 482.6875,191.0938 C480.0625,191.0938 478.0625,193.1719 478.0625,195.8906 L478.0625,197.0156 C478.0625,199.5938 480.1719,201.4844 483.0625,201.4844 C484.2813,201.4844 485.4375,201.1875 486.1875,200.6406 C486.7656,200.2344 487.0938,199.7813 487.0938,199.3906 C487.0938,198.9375 486.7031,198.5469 486.2344,198.5469 C486.0156,198.5469 485.8125,198.625 485.625,198.8125 C485.1719,199.2969 485.1719,199.2969 484.9844,199.3906 C484.5625,199.6563 483.875,199.7813 483.1094,199.7813 C481.0625,199.7813 479.7656,198.6875 479.7656,196.9844 L479.7656,195.8906 C479.7656,194.1094 481.0156,192.7969 482.75,192.7969 C483.3281,192.7969 483.9375,192.9531 484.4063,193.2031 C484.8906,193.4844 485.0625,193.7031 485.1563,194.1094 C485.2188,194.5156 485.25,194.6406 485.3906,194.7656 C485.5313,194.9063 485.7656,195.0156 485.9844,195.0156 C486.25,195.0156 486.5156,194.875 486.6875,194.6563 C486.7969,194.5 486.8281,194.3125 486.8281,193.8906 L486.8281,192.4688 C486.8281,192.0313 486.8125,191.9063 486.7188,191.75 C486.5625,191.4844 486.2813,191.3438 485.9844,191.3438 C485.6875,191.3438 485.4844,191.4375 485.2656,191.75 L485.0938,191.6719 Z " fill="#000000"/><text fill="#000000" font-family="sans-serif" font-size="14" lengthAdjust="spacing" textLength="74" x="503.25" y="200.8467">BLEServer</text><line style="stroke:#181818;stroke-width:0.5;" x1="353" x2="695" y1="212" y2="212"/><rect fill="none" height="6" style="stroke:#C82930;stroke-width:1.0;" width="6" x="360" y="222.6484"/><text fill="#000000" font-family="sans-serif" font-size="14" lengthAdjust="spacing" textLength="217" x="372" y="228.9951">callbacks: MyServerCallbacks*</text><line style="stroke:#181818;stroke-width:0.5;" x1="353" x2="695" y1="236.2969" y2="236.2969"/><ellipse cx="363" cy="249.9453" fill="#84BE84" rx="3" ry="3" style="stroke:#038048;stroke-width:1.0;"/><text fill="#000000" font-family="sans-serif" font-size="14" lengthAdjust="spacing" textLength="318" x="372" y="253.292">setCallbacks(callbacks: MyServerCallbacks*)</text><ellipse cx="363" cy="266.2422" fill="#84BE84" rx="3" ry="3" style="stroke:#038048;stroke-width:1.0;"/><text fill="#000000" font-family="sans-serif" font-size="14" lengthAdjust="spacing" textLength="288" x="372" y="269.5889">createService(uuid: String): BLEService*</text></g><!--class BLECharacteristic--><g id="elem_BLECharacteristic"><rect codeLine="7" fill="#F1F1F1" height="162.0781" id="BLECharacteristic" rx="2.5" ry="2.5" style="stroke:#181818;stroke-width:0.5;" width="444" x="75" y="478"/><ellipse cx="228.75" cy="494" fill="#ADD1B2" rx="11" ry="11" style="stroke:#181818;stroke-width:1.0;"/><path d="M231.0938,489.6719 C230.1563,489.2344 229.5625,489.0938 228.6875,489.0938 C226.0625,489.0938 224.0625,491.1719 224.0625,493.8906 L224.0625,495.0156 C224.0625,497.5938 226.1719,499.4844 229.0625,499.4844 C230.2813,499.4844 231.4375,499.1875 232.1875,498.6406 C232.7656,498.2344 233.0938,497.7813 233.0938,497.3906 C233.0938,496.9375 232.7031,496.5469 232.2344,496.5469 C232.0156,496.5469 231.8125,496.625 231.625,496.8125 C231.1719,497.2969 231.1719,497.2969 230.9844,497.3906 C230.5625,497.6563 229.875,497.7813 229.1094,497.7813 C227.0625,497.7813 225.7656,496.6875 225.7656,494.9844 L225.7656,493.8906 C225.7656,492.1094 227.0156,490.7969 228.75,490.7969 C229.3281,490.7969 229.9375,490.9531 230.4063,491.2031 C230.8906,491.4844 231.0625,491.7031 231.1563,492.1094 C231.2188,492.5156 231.25,492.6406 231.3906,492.7656 C231.5313,492.9063 231.7656,493.0156 231.9844,493.0156 C232.25,493.0156 232.5156,492.875 232.6875,492.6563 C232.7969,492.5 232.8281,492.3125 232.8281,491.8906 L232.8281,490.4688 C232.8281,490.0313 232.8125,489.9063 232.7188,489.75 C232.5625,489.4844 232.2813,489.3438 231.9844,489.3438 C231.6875,489.3438 231.4844,489.4375 231.2656,489.75 L231.0938,489.6719 Z " fill="#000000"/><text fill="#000000" font-family="sans-serif" font-size="14" lengthAdjust="spacing" textLength="128" x="249.25" y="498.8467">BLECharacteristic</text><line style="stroke:#181818;stroke-width:0.5;" x1="76" x2="518" y1="510" y2="510"/><rect fill="none" height="6" style="stroke:#C82930;stroke-width:1.0;" width="6" x="83" y="520.6484"/><text fill="#000000" font-family="sans-serif" font-size="14" lengthAdjust="spacing" textLength="250" x="95" y="526.9951">descriptors: List&lt;BLEDescriptor&gt;*</text><rect fill="none" height="6" style="stroke:#C82930;stroke-width:1.0;" width="6" x="83" y="536.9453"/><text fill="#000000" font-family="sans-serif" font-size="14" lengthAdjust="spacing" textLength="278" x="95" y="543.292">callbacks: BLECharacteristicCallbacks*</text><line style="stroke:#181818;stroke-width:0.5;" x1="76" x2="518" y1="550.5938" y2="550.5938"/><ellipse cx="86" cy="564.2422" fill="#84BE84" rx="3" ry="3" style="stroke:#038048;stroke-width:1.0;"/><text fill="#000000" font-family="sans-serif" font-size="14" lengthAdjust="spacing" textLength="124" x="95" y="567.5889">getValue(): byte*</text><ellipse cx="86" cy="580.5391" fill="#84BE84" rx="3" ry="3" style="stroke:#038048;stroke-width:1.0;"/><text fill="#000000" font-family="sans-serif" font-size="14" lengthAdjust="spacing" textLength="198" x="95" y="583.8857">setValue(value: byte*): void</text><ellipse cx="86" cy="596.8359" fill="#84BE84" rx="3" ry="3" style="stroke:#038048;stroke-width:1.0;"/><text fill="#000000" font-family="sans-serif" font-size="14" lengthAdjust="spacing" textLength="92" x="95" y="600.1826">notify(): void</text><ellipse cx="86" cy="613.1328" fill="#84BE84" rx="3" ry="3" style="stroke:#038048;stroke-width:1.0;"/><text fill="#000000" font-family="sans-serif" font-size="14" lengthAdjust="spacing" textLength="347" x="95" y="616.4795">addDescriptor(descriptor: BLEDescriptor*): void</text><ellipse cx="86" cy="629.4297" fill="#84BE84" rx="3" ry="3" style="stroke:#038048;stroke-width:1.0;"/><text fill="#000000" font-family="sans-serif" font-size="14" lengthAdjust="spacing" textLength="418" x="95" y="632.7764">setCallbacks(callbacks: BLECharacteristicCallbacks*): void</text></g><!--class BLEDescriptor--><g id="elem_BLEDescriptor"><rect codeLine="17" fill="#F1F1F1" height="80.5938" id="BLEDescriptor" rx="2.5" ry="2.5" style="stroke:#181818;stroke-width:0.5;" width="224" x="7" y="700"/><ellipse cx="62.75" cy="716" fill="#ADD1B2" rx="11" ry="11" style="stroke:#181818;stroke-width:1.0;"/><path d="M65.0938,711.6719 C64.1563,711.2344 63.5625,711.0938 62.6875,711.0938 C60.0625,711.0938 58.0625,713.1719 58.0625,715.8906 L58.0625,717.0156 C58.0625,719.5938 60.1719,721.4844 63.0625,721.4844 C64.2813,721.4844 65.4375,721.1875 66.1875,720.6406 C66.7656,720.2344 67.0938,719.7813 67.0938,719.3906 C67.0938,718.9375 66.7031,718.5469 66.2344,718.5469 C66.0156,718.5469 65.8125,718.625 65.625,718.8125 C65.1719,719.2969 65.1719,719.2969 64.9844,719.3906 C64.5625,719.6563 63.875,719.7813 63.1094,719.7813 C61.0625,719.7813 59.7656,718.6875 59.7656,716.9844 L59.7656,715.8906 C59.7656,714.1094 61.0156,712.7969 62.75,712.7969 C63.3281,712.7969 63.9375,712.9531 64.4063,713.2031 C64.8906,713.4844 65.0625,713.7031 65.1563,714.1094 C65.2188,714.5156 65.25,714.6406 65.3906,714.7656 C65.5313,714.9063 65.7656,715.0156 65.9844,715.0156 C66.25,715.0156 66.5156,714.875 66.6875,714.6563 C66.7969,714.5 66.8281,714.3125 66.8281,713.8906 L66.8281,712.4688 C66.8281,712.0313 66.8125,711.9063 66.7188,711.75 C66.5625,711.4844 66.2813,711.3438 65.9844,711.3438 C65.6875,711.3438 65.4844,711.4375 65.2656,711.75 L65.0938,711.6719 Z " fill="#000000"/><text fill="#000000" font-family="sans-serif" font-size="14" lengthAdjust="spacing" textLength="104" x="83.25" y="720.8467">BLEDescriptor</text><line style="stroke:#181818;stroke-width:0.5;" x1="8" x2="230" y1="732" y2="732"/><rect fill="none" height="6" style="stroke:#C82930;stroke-width:1.0;" width="6" x="15" y="742.6484"/><text fill="#000000" font-family="sans-serif" font-size="14" lengthAdjust="spacing" textLength="87" x="27" y="748.9951">value: byte*</text><line style="stroke:#181818;stroke-width:0.5;" x1="8" x2="230" y1="756.2969" y2="756.2969"/><ellipse cx="18" cy="769.9453" fill="#84BE84" rx="3" ry="3" style="stroke:#038048;stroke-width:1.0;"/><text fill="#000000" font-family="sans-serif" font-size="14" lengthAdjust="spacing" textLength="198" x="27" y="773.292">setValue(value: byte*): void</text></g><!--class BLEService--><g id="elem_BLEService"><rect codeLine="22" fill="#F1F1F1" height="80.5938" id="BLEService" rx="2.5" ry="2.5" style="stroke:#181818;stroke-width:0.5;" width="524" x="35" y="337"/><ellipse cx="252.75" cy="353" fill="#ADD1B2" rx="11" ry="11" style="stroke:#181818;stroke-width:1.0;"/><path d="M255.0938,348.6719 C254.1563,348.2344 253.5625,348.0938 252.6875,348.0938 C250.0625,348.0938 248.0625,350.1719 248.0625,352.8906 L248.0625,354.0156 C248.0625,356.5938 250.1719,358.4844 253.0625,358.4844 C254.2813,358.4844 255.4375,358.1875 256.1875,357.6406 C256.7656,357.2344 257.0938,356.7813 257.0938,356.3906 C257.0938,355.9375 256.7031,355.5469 256.2344,355.5469 C256.0156,355.5469 255.8125,355.625 255.625,355.8125 C255.1719,356.2969 255.1719,356.2969 254.9844,356.3906 C254.5625,356.6563 253.875,356.7813 253.1094,356.7813 C251.0625,356.7813 249.7656,355.6875 249.7656,353.9844 L249.7656,352.8906 C249.7656,351.1094 251.0156,349.7969 252.75,349.7969 C253.3281,349.7969 253.9375,349.9531 254.4063,350.2031 C254.8906,350.4844 255.0625,350.7031 255.1563,351.1094 C255.2188,351.5156 255.25,351.6406 255.3906,351.7656 C255.5313,351.9063 255.7656,352.0156 255.9844,352.0156 C256.25,352.0156 256.5156,351.875 256.6875,351.6563 C256.7969,351.5 256.8281,351.3125 256.8281,350.8906 L256.8281,349.4688 C256.8281,349.0313 256.8125,348.9063 256.7188,348.75 C256.5625,348.4844 256.2813,348.3438 255.9844,348.3438 C255.6875,348.3438 255.4844,348.4375 255.2656,348.75 L255.0938,348.6719 Z " fill="#000000"/><text fill="#000000" font-family="sans-serif" font-size="14" lengthAdjust="spacing" textLength="80" x="273.25" y="357.8467">BLEService</text><line style="stroke:#181818;stroke-width:0.5;" x1="36" x2="558" y1="369" y2="369"/><rect fill="none" height="6" style="stroke:#C82930;stroke-width:1.0;" width="6" x="43" y="379.6484"/><text fill="#000000" font-family="sans-serif" font-size="14" lengthAdjust="spacing" textLength="298" x="55" y="385.9951">characteristics: List&lt;BLECharacteristic&gt;*</text><line style="stroke:#181818;stroke-width:0.5;" x1="36" x2="558" y1="393.2969" y2="393.2969"/><ellipse cx="46" cy="406.9453" fill="#84BE84" rx="3" ry="3" style="stroke:#038048;stroke-width:1.0;"/><text fill="#000000" font-family="sans-serif" font-size="14" lengthAdjust="spacing" textLength="498" x="55" y="410.292">createCharacteristic(uuid: String, properties: int): BLECharacteristic*</text></g><!--class BLEDevice--><g id="elem_BLEDevice"><rect codeLine="27" fill="#F1F1F1" height="113.1875" id="BLEDevice" rx="2.5" ry="2.5" style="stroke:#181818;stroke-width:0.5;" width="268" x="586" y="7"/><ellipse cx="677.75" cy="23" fill="#ADD1B2" rx="11" ry="11" style="stroke:#181818;stroke-width:1.0;"/><path d="M680.0938,18.6719 C679.1563,18.2344 678.5625,18.0938 677.6875,18.0938 C675.0625,18.0938 673.0625,20.1719 673.0625,22.8906 L673.0625,24.0156 C673.0625,26.5938 675.1719,28.4844 678.0625,28.4844 C679.2813,28.4844 680.4375,28.1875 681.1875,27.6406 C681.7656,27.2344 682.0938,26.7813 682.0938,26.3906 C682.0938,25.9375 681.7031,25.5469 681.2344,25.5469 C681.0156,25.5469 680.8125,25.625 680.625,25.8125 C680.1719,26.2969 680.1719,26.2969 679.9844,26.3906 C679.5625,26.6563 678.875,26.7813 678.1094,26.7813 C676.0625,26.7813 674.7656,25.6875 674.7656,23.9844 L674.7656,22.8906 C674.7656,21.1094 676.0156,19.7969 677.75,19.7969 C678.3281,19.7969 678.9375,19.9531 679.4063,20.2031 C679.8906,20.4844 680.0625,20.7031 680.1563,21.1094 C680.2188,21.5156 680.25,21.6406 680.3906,21.7656 C680.5313,21.9063 680.7656,22.0156 680.9844,22.0156 C681.25,22.0156 681.5156,21.875 681.6875,21.6563 C681.7969,21.5 681.8281,21.3125 681.8281,20.8906 L681.8281,19.4688 C681.8281,19.0313 681.8125,18.9063 681.7188,18.75 C681.5625,18.4844 681.2813,18.3438 680.9844,18.3438 C680.6875,18.3438 680.4844,18.4375 680.2656,18.75 L680.0938,18.6719 Z " fill="#000000"/><text fill="#000000" font-family="sans-serif" font-size="14" lengthAdjust="spacing" textLength="76" x="698.25" y="27.8467">BLEDevice</text><line style="stroke:#181818;stroke-width:0.5;" x1="587" x2="853" y1="39" y2="39"/><line style="stroke:#181818;stroke-width:0.5;" x1="587" x2="853" y1="47" y2="47"/><ellipse cx="597" cy="60.6484" fill="#84BE84" rx="3" ry="3" style="stroke:#038048;stroke-width:1.0;"/><text fill="#000000" font-family="sans-serif" font-size="14" lengthAdjust="spacing" textLength="214" x="606" y="63.9951">init(deviceName: String): void</text><ellipse cx="597" cy="76.9453" fill="#84BE84" rx="3" ry="3" style="stroke:#038048;stroke-width:1.0;"/><text fill="#000000" font-family="sans-serif" font-size="14" lengthAdjust="spacing" textLength="194" x="606" y="80.292">createServer(): BLEServer*</text><ellipse cx="597" cy="93.2422" fill="#84BE84" rx="3" ry="3" style="stroke:#038048;stroke-width:1.0;"/><text fill="#000000" font-family="sans-serif" font-size="14" lengthAdjust="spacing" textLength="242" x="606" y="96.5889">getAdvertising(): BLEAdvertising*</text><ellipse cx="597" cy="109.5391" fill="#84BE84" rx="3" ry="3" style="stroke:#038048;stroke-width:1.0;"/><text fill="#000000" font-family="sans-serif" font-size="14" lengthAdjust="spacing" textLength="166" x="606" y="112.8857">startAdvertising(): void</text></g><!--class BLEAdvertising--><g id="elem_BLEAdvertising"><rect codeLine="34" fill="#F1F1F1" height="96.8906" id="BLEAdvertising" rx="2.5" ry="2.5" style="stroke:#181818;stroke-width:0.5;" width="371" x="731.5" y="180"/><ellipse cx="858.25" cy="196" fill="#ADD1B2" rx="11" ry="11" style="stroke:#181818;stroke-width:1.0;"/><path d="M860.5938,191.6719 C859.6563,191.2344 859.0625,191.0938 858.1875,191.0938 C855.5625,191.0938 853.5625,193.1719 853.5625,195.8906 L853.5625,197.0156 C853.5625,199.5938 855.6719,201.4844 858.5625,201.4844 C859.7813,201.4844 860.9375,201.1875 861.6875,200.6406 C862.2656,200.2344 862.5938,199.7813 862.5938,199.3906 C862.5938,198.9375 862.2031,198.5469 861.7344,198.5469 C861.5156,198.5469 861.3125,198.625 861.125,198.8125 C860.6719,199.2969 860.6719,199.2969 860.4844,199.3906 C860.0625,199.6563 859.375,199.7813 858.6094,199.7813 C856.5625,199.7813 855.2656,198.6875 855.2656,196.9844 L855.2656,195.8906 C855.2656,194.1094 856.5156,192.7969 858.25,192.7969 C858.8281,192.7969 859.4375,192.9531 859.9063,193.2031 C860.3906,193.4844 860.5625,193.7031 860.6563,194.1094 C860.7188,194.5156 860.75,194.6406 860.8906,194.7656 C861.0313,194.9063 861.2656,195.0156 861.4844,195.0156 C861.75,195.0156 862.0156,194.875 862.1875,194.6563 C862.2969,194.5 862.3281,194.3125 862.3281,193.8906 L862.3281,192.4688 C862.3281,192.0313 862.3125,191.9063 862.2188,191.75 C862.0625,191.4844 861.7813,191.3438 861.4844,191.3438 C861.1875,191.3438 860.9844,191.4375 860.7656,191.75 L860.5938,191.6719 Z " fill="#000000"/><text fill="#000000" font-family="sans-serif" font-size="14" lengthAdjust="spacing" textLength="109" x="878.75" y="200.8467">BLEAdvertising</text><line style="stroke:#181818;stroke-width:0.5;" x1="732.5" x2="1101.5" y1="212" y2="212"/><line style="stroke:#181818;stroke-width:0.5;" x1="732.5" x2="1101.5" y1="220" y2="220"/><ellipse cx="742.5" cy="233.6484" fill="#84BE84" rx="3" ry="3" style="stroke:#038048;stroke-width:1.0;"/><text fill="#000000" font-family="sans-serif" font-size="14" lengthAdjust="spacing" textLength="243" x="751.5" y="236.9951">addServiceUUID(uuid: String): void</text><ellipse cx="742.5" cy="249.9453" fill="#84BE84" rx="3" ry="3" style="stroke:#038048;stroke-width:1.0;"/><text fill="#000000" font-family="sans-serif" font-size="14" lengthAdjust="spacing" textLength="345" x="751.5" y="253.292">setScanResponse(scanResponse: boolean): void</text><ellipse cx="742.5" cy="266.2422" fill="#84BE84" rx="3" ry="3" style="stroke:#038048;stroke-width:1.0;"/><text fill="#000000" font-family="sans-serif" font-size="14" lengthAdjust="spacing" textLength="291" x="751.5" y="269.5889">setMinPreferred(minPreferred: int): void</text></g><!--class BLE2902--><g id="elem_BLE2902"><rect codeLine="40" fill="#F1F1F1" height="48" id="BLE2902" rx="2.5" ry="2.5" style="stroke:#181818;stroke-width:0.5;" width="93" x="889.5" y="39.5"/><ellipse cx="904.5" cy="55.5" fill="#ADD1B2" rx="11" ry="11" style="stroke:#181818;stroke-width:1.0;"/><path d="M906.8438,51.1719 C905.9063,50.7344 905.3125,50.5938 904.4375,50.5938 C901.8125,50.5938 899.8125,52.6719 899.8125,55.3906 L899.8125,56.5156 C899.8125,59.0938 901.9219,60.9844 904.8125,60.9844 C906.0313,60.9844 907.1875,60.6875 907.9375,60.1406 C908.5156,59.7344 908.8438,59.2813 908.8438,58.8906 C908.8438,58.4375 908.4531,58.0469 907.9844,58.0469 C907.7656,58.0469 907.5625,58.125 907.375,58.3125 C906.9219,58.7969 906.9219,58.7969 906.7344,58.8906 C906.3125,59.1563 905.625,59.2813 904.8594,59.2813 C902.8125,59.2813 901.5156,58.1875 901.5156,56.4844 L901.5156,55.3906 C901.5156,53.6094 902.7656,52.2969 904.5,52.2969 C905.0781,52.2969 905.6875,52.4531 906.1563,52.7031 C906.6406,52.9844 906.8125,53.2031 906.9063,53.6094 C906.9688,54.0156 907,54.1406 907.1406,54.2656 C907.2813,54.4063 907.5156,54.5156 907.7344,54.5156 C908,54.5156 908.2656,54.375 908.4375,54.1563 C908.5469,54 908.5781,53.8125 908.5781,53.3906 L908.5781,51.9688 C908.5781,51.5313 908.5625,51.4063 908.4688,51.25 C908.3125,50.9844 908.0313,50.8438 907.7344,50.8438 C907.4375,50.8438 907.2344,50.9375 907.0156,51.25 L906.8438,51.1719 Z " fill="#000000"/><text fill="#000000" font-family="sans-serif" font-size="14" lengthAdjust="spacing" textLength="61" x="918.5" y="60.3467">BLE2902</text><line style="stroke:#181818;stroke-width:0.5;" x1="890.5" x2="981.5" y1="71.5" y2="71.5"/><line style="stroke:#181818;stroke-width:0.5;" x1="890.5" x2="981.5" y1="79.5" y2="79.5"/></g><!--class MyServerCallbacks--><g id="elem_MyServerCallbacks"><rect codeLine="42" fill="#F1F1F1" height="80.5938" id="MyServerCallbacks" rx="2.5" ry="2.5" style="stroke:#181818;stroke-width:0.5;" width="314" x="594" y="337"/><ellipse cx="679.25" cy="353" fill="#ADD1B2" rx="11" ry="11" style="stroke:#181818;stroke-width:1.0;"/><path d="M681.5938,348.6719 C680.6563,348.2344 680.0625,348.0938 679.1875,348.0938 C676.5625,348.0938 674.5625,350.1719 674.5625,352.8906 L674.5625,354.0156 C674.5625,356.5938 676.6719,358.4844 679.5625,358.4844 C680.7813,358.4844 681.9375,358.1875 682.6875,357.6406 C683.2656,357.2344 683.5938,356.7813 683.5938,356.3906 C683.5938,355.9375 683.2031,355.5469 682.7344,355.5469 C682.5156,355.5469 682.3125,355.625 682.125,355.8125 C681.6719,356.2969 681.6719,356.2969 681.4844,356.3906 C681.0625,356.6563 680.375,356.7813 679.6094,356.7813 C677.5625,356.7813 676.2656,355.6875 676.2656,353.9844 L676.2656,352.8906 C676.2656,351.1094 677.5156,349.7969 679.25,349.7969 C679.8281,349.7969 680.4375,349.9531 680.9063,350.2031 C681.3906,350.4844 681.5625,350.7031 681.6563,351.1094 C681.7188,351.5156 681.75,351.6406 681.8906,351.7656 C682.0313,351.9063 682.2656,352.0156 682.4844,352.0156 C682.75,352.0156 683.0156,351.875 683.1875,351.6563 C683.2969,351.5 683.3281,351.3125 683.3281,350.8906 L683.3281,349.4688 C683.3281,349.0313 683.3125,348.9063 683.2188,348.75 C683.0625,348.4844 682.7813,348.3438 682.4844,348.3438 C682.1875,348.3438 681.9844,348.4375 681.7656,348.75 L681.5938,348.6719 Z " fill="#000000"/><text fill="#000000" font-family="sans-serif" font-size="14" lengthAdjust="spacing" textLength="135" x="699.75" y="357.8467">MyServerCallbacks</text><line style="stroke:#181818;stroke-width:0.5;" x1="595" x2="907" y1="369" y2="369"/><line style="stroke:#181818;stroke-width:0.5;" x1="595" x2="907" y1="377" y2="377"/><ellipse cx="605" cy="390.6484" fill="#84BE84" rx="3" ry="3" style="stroke:#038048;stroke-width:1.0;"/><text fill="#000000" font-family="sans-serif" font-size="14" lengthAdjust="spacing" textLength="268" x="614" y="393.9951">onConnect(pServer: BLEServer): void</text><ellipse cx="605" cy="406.9453" fill="#84BE84" rx="3" ry="3" style="stroke:#038048;stroke-width:1.0;"/><text fill="#000000" font-family="sans-serif" font-size="14" lengthAdjust="spacing" textLength="288" x="614" y="410.292">onDisconnect(pServer: BLEServer): void</text></g><!--class MyCharacteristicCallbacks--><g id="elem_MyCharacteristicCallbacks"><rect codeLine="47" fill="#F1F1F1" height="64.2969" id="MyCharacteristicCallbacks" rx="2.5" ry="2.5" style="stroke:#181818;stroke-width:0.5;" width="420" x="266" y="708.5"/><ellipse cx="377.25" cy="724.5" fill="#ADD1B2" rx="11" ry="11" style="stroke:#181818;stroke-width:1.0;"/><path d="M379.5938,720.1719 C378.6563,719.7344 378.0625,719.5938 377.1875,719.5938 C374.5625,719.5938 372.5625,721.6719 372.5625,724.3906 L372.5625,725.5156 C372.5625,728.0938 374.6719,729.9844 377.5625,729.9844 C378.7813,729.9844 379.9375,729.6875 380.6875,729.1406 C381.2656,728.7344 381.5938,728.2813 381.5938,727.8906 C381.5938,727.4375 381.2031,727.0469 380.7344,727.0469 C380.5156,727.0469 380.3125,727.125 380.125,727.3125 C379.6719,727.7969 379.6719,727.7969 379.4844,727.8906 C379.0625,728.1563 378.375,728.2813 377.6094,728.2813 C375.5625,728.2813 374.2656,727.1875 374.2656,725.4844 L374.2656,724.3906 C374.2656,722.6094 375.5156,721.2969 377.25,721.2969 C377.8281,721.2969 378.4375,721.4531 378.9063,721.7031 C379.3906,721.9844 379.5625,722.2031 379.6563,722.6094 C379.7188,723.0156 379.75,723.1406 379.8906,723.2656 C380.0313,723.4063 380.2656,723.5156 380.4844,723.5156 C380.75,723.5156 381.0156,723.375 381.1875,723.1563 C381.2969,723 381.3281,722.8125 381.3281,722.3906 L381.3281,720.9688 C381.3281,720.5313 381.3125,720.4063 381.2188,720.25 C381.0625,719.9844 380.7813,719.8438 380.4844,719.8438 C380.1875,719.8438 379.9844,719.9375 379.7656,720.25 L379.5938,720.1719 Z " fill="#000000"/><text fill="#000000" font-family="sans-serif" font-size="14" lengthAdjust="spacing" textLength="189" x="397.75" y="729.3467">MyCharacteristicCallbacks</text><line style="stroke:#181818;stroke-width:0.5;" x1="267" x2="685" y1="740.5" y2="740.5"/><line style="stroke:#181818;stroke-width:0.5;" x1="267" x2="685" y1="748.5" y2="748.5"/><ellipse cx="277" cy="762.1484" fill="#84BE84" rx="3" ry="3" style="stroke:#038048;stroke-width:1.0;"/><text fill="#000000" font-family="sans-serif" font-size="14" lengthAdjust="spacing" textLength="394" x="286" y="765.4951">onWrite(pRelayCharacteristic: BLECharacteristic): void</text></g><!--reverse link BLEServer to BLEService--><g id="link_BLEServer_BLEService"><path codeLine="51" d="M440.5405,283.5466 C410.7475,302.8396 386.796,318.35 358.354,336.769 " fill="none" id="BLEServer-backto-BLEService" style="stroke:#181818;stroke-width:1.0;"/><polygon fill="#181818" points="450.613,277.024,443.4025,276.9278,440.5405,283.5466,447.751,283.6428,450.613,277.024" style="stroke:#181818;stroke-width:1.0;"/><text fill="#000000" font-family="sans-serif" font-size="13" lengthAdjust="spacing" textLength="8" x="431.7305" y="296.9863">1</text><text fill="#000000" font-family="sans-serif" font-size="13" lengthAdjust="spacing" textLength="23" x="343.6111" y="325.8923">1..*</text></g><!--reverse link BLEService to BLECharacteristic--><g id="link_BLEService_BLECharacteristic"><path codeLine="52" d="M297,430.337 C297,447.895 297,457.191 297,477.807 " fill="none" id="BLEService-backto-BLECharacteristic" style="stroke:#181818;stroke-width:1.0;"/><polygon fill="#181818" points="297,418.337,293,424.337,297,430.337,301,424.337,297,418.337" style="stroke:#181818;stroke-width:1.0;"/><text fill="#000000" font-family="sans-serif" font-size="13" lengthAdjust="spacing" textLength="8" x="288.4125" y="437.543">1</text><text fill="#000000" font-family="sans-serif" font-size="13" lengthAdjust="spacing" textLength="23" x="272.9758" y="466.9771">1..*</text></g><!--reverse link BLECharacteristic to BLEDescriptor--><g id="link_BLECharacteristic_BLEDescriptor"><path codeLine="53" d="M209.1813,648.5587 C188.5993,669.3137 175.773,682.2485 158.274,699.8953 " fill="none" id="BLECharacteristic-backto-BLEDescriptor" style="stroke:#181818;stroke-width:1.0;"/><polygon fill="#181818" points="217.631,640.038,210.5659,641.4818,209.1813,648.5587,216.2464,647.1149,217.631,640.038" style="stroke:#181818;stroke-width:1.0;"/><text fill="#000000" font-family="sans-serif" font-size="13" lengthAdjust="spacing" textLength="8" x="201.9454" y="660.2695">1</text><text fill="#000000" font-family="sans-serif" font-size="13" lengthAdjust="spacing" textLength="23" x="139.8741" y="689.0395">0..*</text></g><!--reverse link BLEDevice to BLEServer--><g id="link_BLEDevice_BLEServer"><path codeLine="54" d="M643.8698,127.8121 C620.4708,147.2721 603.659,161.253 581.131,179.988 " fill="none" id="BLEDevice-backto-BLEServer" style="stroke:#181818;stroke-width:1.0;"/><polygon fill="#181818" points="653.096,120.139,645.9252,120.9001,643.8698,127.8121,651.0406,127.051,653.096,120.139" style="stroke:#181818;stroke-width:1.0;"/><text fill="#000000" font-family="sans-serif" font-size="13" lengthAdjust="spacing" textLength="8" x="636.0114" y="140.4202">1</text><text fill="#000000" font-family="sans-serif" font-size="13" lengthAdjust="spacing" textLength="23" x="564.8331" y="168.8459">1..*</text></g><!--reverse link BLEDevice to BLEAdvertising--><g id="link_BLEDevice_BLEAdvertising"><path codeLine="55" d="M796.4905,127.7889 C820.0095,147.2489 836.935,161.253 859.578,179.988 " fill="none" id="BLEDevice-backto-BLEAdvertising" style="stroke:#181818;stroke-width:1.0;"/><polygon fill="#181818" points="787.245,120.139,789.3178,127.0458,796.4905,127.7889,794.4177,120.8821,787.245,120.139" style="stroke:#181818;stroke-width:1.0;"/><text fill="#000000" font-family="sans-serif" font-size="13" lengthAdjust="spacing" textLength="8" x="787.3483" y="140.4202">1</text><text fill="#000000" font-family="sans-serif" font-size="13" lengthAdjust="spacing" textLength="24" x="825.3816" y="168.8459">0..1</text></g><!--reverse link BLECharacteristic to MyCharacteristicCallbacks--><g id="link_BLECharacteristic_MyCharacteristicCallbacks"><path codeLine="56" d="M381.0517,644.2865 C405.1047,668.4065 425.866,689.2255 444.748,708.1605 " fill="none" id="BLECharacteristic-backto-MyCharacteristicCallbacks" style="stroke:#181818;stroke-width:1.0;"/><polygon fill="#181818" points="376.815,640.038,380.3377,649.2353,380.3456,643.5784,386.0025,643.5863,376.815,640.038" style="stroke:#181818;stroke-width:1.0;"/></g><!--reverse link BLEServer to MyServerCallbacks--><g id="link_BLEServer_MyServerCallbacks"><path codeLine="57" d="M602.4233,280.2853 C632.2163,299.5783 661.204,318.35 689.646,336.769 " fill="none" id="BLEServer-backto-MyServerCallbacks" style="stroke:#181818;stroke-width:1.0;"/><polygon fill="#181818" points="597.387,277.024,602.7672,285.2735,601.5839,279.7418,607.1156,278.5585,597.387,277.024" style="stroke:#181818;stroke-width:1.0;"/></g><!--SRC=[ZLJ1JiCm3BttAwgUii8cneq98S760Mb3Y6bm3gaP4IMfdApIDF7lf6lJ96q7xB1fzhFz_FnQbbEbuhlb_Hgm18mFKMm-OqRp_8soJpMBL_iwDRUXz0WvKw3R4FaLFweB60BLK2Kv0xBRyMmMhpLoiHtDB0EJIQFlA6AMrlo38cKQa2lDcQMNWMB82otH35oQrBM1BjhWJThRejUgkyuMz0lDTq0CcRUz1hTb7IwhxoPb8ANaMOqGKlFtFGbYDCiS6-BO7dcuJDZebA2_KBVrlcAklLNBf_wFhVncpKrQMmGyFEr3Wet-pSN3N73uyxX0MG1g3gOP5teqi6xQMSyZTCO5rqRVAlH8ly0pbDFL-GwGEAi1kilVPcL5GfdI1k55h6QQOXVOqylBMuh62usAcyt3eklxuFnhHiKpg48A1KHvVyo5fCo1Ycx5YeidX7T0X8nyUN-icZs6brSNb_6XZVIULajRYhaK0fWcHOtmX0jOIB7WYls9zIQUSBER_8fS0ocU8QSTy80zl07kDPPCapWTZytlP98cdfCZpzHzKDWvwhz_sf8BM-8UjyYvStWy349CfsdIySx0v6k3FIcTjtcDwnpr1m00]--></g></svg>