<?xml version="1.0" encoding="us-ascii" standalone="no"?><svg xmlns="http://www.w3.org/2000/svg" xmlns:xlink="http://www.w3.org/1999/xlink" contentStyleType="text/css" height="525px" preserveAspectRatio="none" style="width:667px;height:525px;background:#FFFFFF;" version="1.1" viewBox="0 0 667 525" width="667px" zoomAndPan="magnify"><defs/><g><line style="stroke:#181818;stroke-width:0.5;stroke-dasharray:5.0,5.0;" x1="81" x2="81" y1="36.2969" y2="490.1563"/><line style="stroke:#181818;stroke-width:0.5;stroke-dasharray:5.0,5.0;" x1="448" x2="448" y1="36.2969" y2="490.1563"/><line style="stroke:#181818;stroke-width:0.5;stroke-dasharray:5.0,5.0;" x1="588" x2="588" y1="36.2969" y2="490.1563"/><rect fill="#E2E2F0" height="30.2969" rx="2.5" ry="2.5" style="stroke:#181818;stroke-width:0.5;" width="152" x="5" y="5"/><text fill="#000000" font-family="sans-serif" font-size="14" lengthAdjust="spacing" textLength="138" x="12" y="24.9951">Application Python</text><rect fill="#E2E2F0" height="30.2969" rx="2.5" ry="2.5" style="stroke:#181818;stroke-width:0.5;" width="152" x="5" y="489.1563"/><text fill="#000000" font-family="sans-serif" font-size="14" lengthAdjust="spacing" textLength="138" x="12" y="509.1514">Application Python</text><rect fill="#E2E2F0" height="30.2969" rx="2.5" ry="2.5" style="stroke:#181818;stroke-width:0.5;" width="114" x="391" y="5"/><text fill="#000000" font-family="sans-serif" font-size="14" lengthAdjust="spacing" textLength="100" x="398" y="24.9951">Serveur MQTT</text><rect fill="#E2E2F0" height="30.2969" rx="2.5" ry="2.5" style="stroke:#181818;stroke-width:0.5;" width="114" x="391" y="489.1563"/><text fill="#000000" font-family="sans-serif" font-size="14" lengthAdjust="spacing" textLength="100" x="398" y="509.1514">Serveur MQTT</text><rect fill="#E2E2F0" height="30.2969" rx="2.5" ry="2.5" style="stroke:#181818;stroke-width:0.5;" width="146" x="515" y="5"/><text fill="#000000" font-family="sans-serif" font-size="14" lengthAdjust="spacing" textLength="132" x="522" y="24.9951">ESP32 serveur BLE</text><rect fill="#E2E2F0" height="30.2969" rx="2.5" ry="2.5" style="stroke:#181818;stroke-width:0.5;" width="146" x="515" y="489.1563"/><text fill="#000000" font-family="sans-serif" font-size="14" lengthAdjust="spacing" textLength="132" x="522" y="509.1514">ESP32 serveur BLE</text><line style="stroke:#181818;stroke-width:1.0;" x1="81" x2="123" y1="67.4297" y2="67.4297"/><line style="stroke:#181818;stroke-width:1.0;" x1="123" x2="123" y1="67.4297" y2="80.4297"/><line style="stroke:#181818;stroke-width:1.0;" x1="82" x2="123" y1="80.4297" y2="80.4297"/><polygon fill="#181818" points="92,76.4297,82,80.4297,92,84.4297,88,80.4297" style="stroke:#181818;stroke-width:1.0;"/><text fill="#000000" font-family="sans-serif" font-size="13" lengthAdjust="spacing" textLength="102" x="88" y="62.3638">Lire config.yaml</text><line style="stroke:#181818;stroke-width:1.0;" x1="81" x2="123" y1="109.5625" y2="109.5625"/><line style="stroke:#181818;stroke-width:1.0;" x1="123" x2="123" y1="109.5625" y2="122.5625"/><line style="stroke:#181818;stroke-width:1.0;" x1="82" x2="123" y1="122.5625" y2="122.5625"/><polygon fill="#181818" points="92,118.5625,82,122.5625,92,126.5625,88,122.5625" style="stroke:#181818;stroke-width:1.0;"/><text fill="#000000" font-family="sans-serif" font-size="13" lengthAdjust="spacing" textLength="185" x="88" y="104.4966">Initialiser clients MQTT et BLE</text><polygon fill="#181818" points="436,147.6953,446,151.6953,436,155.6953,440,151.6953" style="stroke:#181818;stroke-width:1.0;"/><line style="stroke:#181818;stroke-width:1.0;" x1="81" x2="442" y1="151.6953" y2="151.6953"/><text fill="#000000" font-family="sans-serif" font-size="13" lengthAdjust="spacing" textLength="84" x="88" y="146.6294">Se connecter</text><polygon fill="#181818" points="92,176.8281,82,180.8281,92,184.8281,88,180.8281" style="stroke:#181818;stroke-width:1.0;"/><line style="stroke:#181818;stroke-width:1.0;stroke-dasharray:2.0,2.0;" x1="86" x2="447" y1="180.8281" y2="180.8281"/><text fill="#000000" font-family="sans-serif" font-size="13" lengthAdjust="spacing" textLength="134" x="98" y="175.7622">Confirmer connexion</text><polygon fill="#181818" points="436,205.9609,446,209.9609,436,213.9609,440,209.9609" style="stroke:#181818;stroke-width:1.0;"/><line style="stroke:#181818;stroke-width:1.0;" x1="81" x2="442" y1="209.9609" y2="209.9609"/><text fill="#000000" font-family="sans-serif" font-size="13" lengthAdjust="spacing" textLength="267" x="88" y="204.895">S'abonner &#224; MQTT_TOPIC_LED_COMMAND</text><polygon fill="#181818" points="576,235.0938,586,239.0938,576,243.0938,580,239.0938" style="stroke:#181818;stroke-width:1.0;"/><line style="stroke:#181818;stroke-width:1.0;" x1="81" x2="582" y1="239.0938" y2="239.0938"/><text fill="#000000" font-family="sans-serif" font-size="13" lengthAdjust="spacing" textLength="153" x="88" y="234.0278">D&#233;couvrir p&#233;riph&#233;riques</text><polygon fill="#181818" points="576,264.2266,586,268.2266,576,272.2266,580,268.2266" style="stroke:#181818;stroke-width:1.0;"/><line style="stroke:#181818;stroke-width:1.0;" x1="81" x2="582" y1="268.2266" y2="268.2266"/><text fill="#000000" font-family="sans-serif" font-size="13" lengthAdjust="spacing" textLength="146" x="88" y="263.1606">Se connecter &#224; l'ESP32</text><polygon fill="#181818" points="576,293.3594,586,297.3594,576,301.3594,580,297.3594" style="stroke:#181818;stroke-width:1.0;"/><line style="stroke:#181818;stroke-width:1.0;" x1="81" x2="582" y1="297.3594" y2="297.3594"/><text fill="#000000" font-family="sans-serif" font-size="13" lengthAdjust="spacing" textLength="287" x="88" y="292.2935">S'abonner &#224; SENSOR_CHARACTERISTIC_UUID</text><line style="stroke:#181818;stroke-width:1.0;" x1="82" x2="92" y1="326.4922" y2="322.4922"/><line style="stroke:#181818;stroke-width:1.0;" x1="82" x2="92" y1="326.4922" y2="330.4922"/><line style="stroke:#181818;stroke-width:1.0;" x1="81" x2="447" y1="326.4922" y2="326.4922"/><text fill="#000000" font-family="sans-serif" font-size="13" lengthAdjust="spacing" textLength="270" x="98" y="321.4263">Recevoir ordre de commande asynchrone</text><line style="stroke:#181818;stroke-width:1.0;" x1="586" x2="576" y1="355.625" y2="351.625"/><line style="stroke:#181818;stroke-width:1.0;" x1="586" x2="576" y1="355.625" y2="359.625"/><line style="stroke:#181818;stroke-width:1.0;" x1="81" x2="587" y1="355.625" y2="355.625"/><text fill="#000000" font-family="sans-serif" font-size="13" lengthAdjust="spacing" textLength="355" x="88" y="350.5591">Envoyer commande LED &#224; LED_CHARACTERISTIC_UUID</text><line style="stroke:#181818;stroke-width:1.0;" x1="82" x2="92" y1="384.7578" y2="380.7578"/><line style="stroke:#181818;stroke-width:1.0;" x1="82" x2="92" y1="384.7578" y2="388.7578"/><line style="stroke:#181818;stroke-width:1.0;" x1="81" x2="587" y1="384.7578" y2="384.7578"/><text fill="#000000" font-family="sans-serif" font-size="13" lengthAdjust="spacing" textLength="264" x="98" y="379.6919">Envoyer donn&#233;es du capteur asynchrone</text><line style="stroke:#181818;stroke-width:1.0;" x1="446" x2="436" y1="413.8906" y2="409.8906"/><line style="stroke:#181818;stroke-width:1.0;" x1="446" x2="436" y1="413.8906" y2="417.8906"/><line style="stroke:#181818;stroke-width:1.0;" x1="81" x2="447" y1="413.8906" y2="413.8906"/><text fill="#000000" font-family="sans-serif" font-size="13" lengthAdjust="spacing" textLength="343" x="88" y="408.8247">Publier donn&#233;es du capteur sur MQTT_TOPIC_SENSOR</text><polygon fill="#181818" points="576,439.0234,586,443.0234,576,447.0234,580,443.0234" style="stroke:#181818;stroke-width:1.0;"/><line style="stroke:#181818;stroke-width:1.0;" x1="81" x2="582" y1="443.0234" y2="443.0234"/><text fill="#000000" font-family="sans-serif" font-size="13" lengthAdjust="spacing" textLength="286" x="88" y="437.9575">Se d&#233;sabonner et se d&#233;connecter de l'ESP32</text><polygon fill="#181818" points="436,468.1563,446,472.1563,436,476.1563,440,472.1563" style="stroke:#181818;stroke-width:1.0;"/><line style="stroke:#181818;stroke-width:1.0;" x1="81" x2="442" y1="472.1563" y2="472.1563"/><text fill="#000000" font-family="sans-serif" font-size="13" lengthAdjust="spacing" textLength="214" x="88" y="467.0903">Se d&#233;connecter du Serveur MQTT</text><!--SRC=[RLFBReCm4Bpp5QjUSceFxQs7IfGWDLBIf43FaUji6qjWkxP1pT_qck_WnxfsW4351SmoEpFxi6R62IuqamvkOgrBmPaJIiBkv8vAtW2pGE58Zt4vcWPh0vkteWW8VvX2qdptS0-s0pwlqu2ZTnGjO2M54wmKDaX5n0-tJru67c4j309NybDytPrOLKx_3fbeW9S2fRk80xgUF55Iueyl8RZgqWFe4VB0BP4xD568tGxSYHSrbMVkAJnV_E6_AfAQ9LomyDz0-njY-sAxMoNxTRhS9zlD9dvTUf9bU-QgRj0uz5O7WM2wOwGZ4NP88mpezco4FlhdTursYXjNuhNBHMZvFz3ONPw-vjjidxp4MPmKQRRA2pBw_huA3ZFIHHr6p-n9ygDH4k60K38IgYecwKnLGIFOfH6NzZtrxSkGOwF8jZ874pA7j2jXPw_tbyf6dKB3Hm9aDNHltgTF4LEB5WvKP7lsXneuquvsBl8ALtUzqWnopbuttLtzGKisdsMx2z0D_DBTOTRz0lsVsQ4zstucj0WsHAw3zFsU3lAwk5DW3UDR-0S0]--></g></svg>