<?xml version="1.0" encoding="us-ascii" standalone="no"?><svg xmlns="http://www.w3.org/2000/svg" xmlns:xlink="http://www.w3.org/1999/xlink" contentStyleType="text/css" height="525px" preserveAspectRatio="none" style="width:603px;height:525px;background:#FFFFFF;" version="1.1" viewBox="0 0 603 525" width="603px" zoomAndPan="magnify"><defs/><g><line style="stroke:#181818;stroke-width:0.5;stroke-dasharray:5.0,5.0;" x1="81" x2="81" y1="36.2969" y2="490.1563"/><line style="stroke:#181818;stroke-width:0.5;stroke-dasharray:5.0,5.0;" x1="394" x2="394" y1="36.2969" y2="490.1563"/><line style="stroke:#181818;stroke-width:0.5;stroke-dasharray:5.0,5.0;" x1="527" x2="527" y1="36.2969" y2="490.1563"/><rect fill="#E2E2F0" height="30.2969" rx="2.5" ry="2.5" style="stroke:#181818;stroke-width:0.5;" width="152" x="5" y="5"/><text fill="#000000" font-family="sans-serif" font-size="14" lengthAdjust="spacing" textLength="138" x="12" y="24.9951">Python Application</text><rect fill="#E2E2F0" height="30.2969" rx="2.5" ry="2.5" style="stroke:#181818;stroke-width:0.5;" width="152" x="5" y="489.1563"/><text fill="#000000" font-family="sans-serif" font-size="14" lengthAdjust="spacing" textLength="138" x="12" y="509.1514">Python Application</text><rect fill="#E2E2F0" height="30.2969" rx="2.5" ry="2.5" style="stroke:#181818;stroke-width:0.5;" width="106" x="341" y="5"/><text fill="#000000" font-family="sans-serif" font-size="14" lengthAdjust="spacing" textLength="92" x="348" y="24.9951">MQTT Server</text><rect fill="#E2E2F0" height="30.2969" rx="2.5" ry="2.5" style="stroke:#181818;stroke-width:0.5;" width="106" x="341" y="489.1563"/><text fill="#000000" font-family="sans-serif" font-size="14" lengthAdjust="spacing" textLength="92" x="348" y="509.1514">MQTT Server</text><rect fill="#E2E2F0" height="30.2969" rx="2.5" ry="2.5" style="stroke:#181818;stroke-width:0.5;" width="140" x="457" y="5"/><text fill="#000000" font-family="sans-serif" font-size="14" lengthAdjust="spacing" textLength="126" x="464" y="24.9951">ESP32 BLE Server</text><rect fill="#E2E2F0" height="30.2969" rx="2.5" ry="2.5" style="stroke:#181818;stroke-width:0.5;" width="140" x="457" y="489.1563"/><text fill="#000000" font-family="sans-serif" font-size="14" lengthAdjust="spacing" textLength="126" x="464" y="509.1514">ESP32 BLE Server</text><line style="stroke:#181818;stroke-width:1.0;" x1="81" x2="123" y1="67.4297" y2="67.4297"/><line style="stroke:#181818;stroke-width:1.0;" x1="123" x2="123" y1="67.4297" y2="80.4297"/><line style="stroke:#181818;stroke-width:1.0;" x1="82" x2="123" y1="80.4297" y2="80.4297"/><polygon fill="#181818" points="92,76.4297,82,80.4297,92,84.4297,88,80.4297" style="stroke:#181818;stroke-width:1.0;"/><text fill="#000000" font-family="sans-serif" font-size="13" lengthAdjust="spacing" textLength="112" x="88" y="62.3638">Read config.yaml</text><line style="stroke:#181818;stroke-width:1.0;" x1="81" x2="123" y1="109.5625" y2="109.5625"/><line style="stroke:#181818;stroke-width:1.0;" x1="123" x2="123" y1="109.5625" y2="122.5625"/><line style="stroke:#181818;stroke-width:1.0;" x1="82" x2="123" y1="122.5625" y2="122.5625"/><polygon fill="#181818" points="92,118.5625,82,122.5625,92,126.5625,88,122.5625" style="stroke:#181818;stroke-width:1.0;"/><text fill="#000000" font-family="sans-serif" font-size="13" lengthAdjust="spacing" textLength="191" x="88" y="104.4966">Initialize MQTT and BLE clients</text><polygon fill="#181818" points="382,147.6953,392,151.6953,382,155.6953,386,151.6953" style="stroke:#181818;stroke-width:1.0;"/><line style="stroke:#181818;stroke-width:1.0;" x1="81" x2="388" y1="151.6953" y2="151.6953"/><text fill="#000000" font-family="sans-serif" font-size="13" lengthAdjust="spacing" textLength="53" x="88" y="146.6294">Connect</text><polygon fill="#181818" points="92,176.8281,82,180.8281,92,184.8281,88,180.8281" style="stroke:#181818;stroke-width:1.0;"/><line style="stroke:#181818;stroke-width:1.0;stroke-dasharray:2.0,2.0;" x1="86" x2="393" y1="180.8281" y2="180.8281"/><text fill="#000000" font-family="sans-serif" font-size="13" lengthAdjust="spacing" textLength="125" x="98" y="175.7622">Confirm connection</text><polygon fill="#181818" points="382,205.9609,392,209.9609,382,213.9609,386,209.9609" style="stroke:#181818;stroke-width:1.0;"/><line style="stroke:#181818;stroke-width:1.0;" x1="81" x2="388" y1="209.9609" y2="209.9609"/><text fill="#000000" font-family="sans-serif" font-size="13" lengthAdjust="spacing" textLength="270" x="88" y="204.895">Subscribe to MQTT_TOPIC_LED_COMMAND</text><polygon fill="#181818" points="515,235.0938,525,239.0938,515,243.0938,519,239.0938" style="stroke:#181818;stroke-width:1.0;"/><line style="stroke:#181818;stroke-width:1.0;" x1="81" x2="521" y1="239.0938" y2="239.0938"/><text fill="#000000" font-family="sans-serif" font-size="13" lengthAdjust="spacing" textLength="109" x="88" y="234.0278">Discover devices</text><polygon fill="#181818" points="515,264.2266,525,268.2266,515,272.2266,519,268.2266" style="stroke:#181818;stroke-width:1.0;"/><line style="stroke:#181818;stroke-width:1.0;" x1="81" x2="521" y1="268.2266" y2="268.2266"/><text fill="#000000" font-family="sans-serif" font-size="13" lengthAdjust="spacing" textLength="114" x="88" y="263.1606">Connect to ESP32</text><polygon fill="#181818" points="515,293.3594,525,297.3594,515,301.3594,519,297.3594" style="stroke:#181818;stroke-width:1.0;"/><line style="stroke:#181818;stroke-width:1.0;" x1="81" x2="521" y1="297.3594" y2="297.3594"/><text fill="#000000" font-family="sans-serif" font-size="13" lengthAdjust="spacing" textLength="290" x="88" y="292.2935">Subscribe to SENSOR_CHARACTERISTIC_UUID</text><line style="stroke:#181818;stroke-width:1.0;" x1="82" x2="92" y1="326.4922" y2="322.4922"/><line style="stroke:#181818;stroke-width:1.0;" x1="82" x2="92" y1="326.4922" y2="330.4922"/><line style="stroke:#181818;stroke-width:1.0;" x1="81" x2="393" y1="326.4922" y2="326.4922"/><text fill="#000000" font-family="sans-serif" font-size="13" lengthAdjust="spacing" textLength="252" x="98" y="321.4263">Receive asynchronous command order</text><line style="stroke:#181818;stroke-width:1.0;" x1="525" x2="515" y1="355.625" y2="351.625"/><line style="stroke:#181818;stroke-width:1.0;" x1="525" x2="515" y1="355.625" y2="359.625"/><line style="stroke:#181818;stroke-width:1.0;" x1="81" x2="526" y1="355.625" y2="355.625"/><text fill="#000000" font-family="sans-serif" font-size="13" lengthAdjust="spacing" textLength="331" x="88" y="350.5591">Send LED command to LED_CHARACTERISTIC_UUID</text><line style="stroke:#181818;stroke-width:1.0;" x1="82" x2="92" y1="384.7578" y2="380.7578"/><line style="stroke:#181818;stroke-width:1.0;" x1="82" x2="92" y1="384.7578" y2="388.7578"/><line style="stroke:#181818;stroke-width:1.0;" x1="81" x2="526" y1="384.7578" y2="384.7578"/><text fill="#000000" font-family="sans-serif" font-size="13" lengthAdjust="spacing" textLength="206" x="98" y="379.6919">Send asynchronous sensor data</text><line style="stroke:#181818;stroke-width:1.0;" x1="392" x2="382" y1="413.8906" y2="409.8906"/><line style="stroke:#181818;stroke-width:1.0;" x1="392" x2="382" y1="413.8906" y2="417.8906"/><line style="stroke:#181818;stroke-width:1.0;" x1="81" x2="393" y1="413.8906" y2="413.8906"/><text fill="#000000" font-family="sans-serif" font-size="13" lengthAdjust="spacing" textLength="289" x="88" y="408.8247">Publish sensor data on MQTT_TOPIC_SENSOR</text><polygon fill="#181818" points="515,439.0234,525,443.0234,515,447.0234,519,443.0234" style="stroke:#181818;stroke-width:1.0;"/><line style="stroke:#181818;stroke-width:1.0;" x1="81" x2="521" y1="443.0234" y2="443.0234"/><text fill="#000000" font-family="sans-serif" font-size="13" lengthAdjust="spacing" textLength="258" x="88" y="437.9575">Unsubscribe and disconnect from ESP32</text><polygon fill="#181818" points="382,468.1563,392,472.1563,382,476.1563,386,472.1563" style="stroke:#181818;stroke-width:1.0;"/><line style="stroke:#181818;stroke-width:1.0;" x1="81" x2="388" y1="472.1563" y2="472.1563"/><text fill="#000000" font-family="sans-serif" font-size="13" lengthAdjust="spacing" textLength="192" x="88" y="467.0903">Disconnect from MQTT Server</text><!--SRC=[ZLCzRuCm5Dpv5KzTEgL3ksM8H0bIaV91WSp8CKxo9B2HxI3HNr_R0MBI3DsmtxsxyvreYTH8iILSmqlQwulW4BPjZPHe5Fm5YBBdeFLns- -YW9p9Zaa7iESv8ixJZtVutCG-p1o3u1KIZXf9ZJzE8J3ii5XP4LX2naW5LF0JdjzwqjJpwRJ9d2GGNZaDMYFZMbboTny9pXdrsTtrSXm4xhYOU2ChA1ihFEwDLFdrgAZ4zWdPC3eoqCBTbSK-JQ9o4w_BQB_TXhkrfR46rwYeC37qpl9VUnQpd51GiGufK_Ffi6N5NBhpwSnC7k_oVLP6Ns4MHaMS9NbXV1qEYJCKgfxJYnHSN1L8Hfbx78WJ6EScWwQn9ZiajrvlMQtk3L667JDzUYpZaf0LauEnoHap0v_P67GH_SETChl8pzQR-LJ2H4Cq2IpntP4J80zh4tOqCvIMNeyrgeiF0VDuhxvRUDQAw-DvLGUkfi3jcwe92YSfcdb3W_Jw0UFzHRy0]--></g></svg>