<?xml version="1.0" encoding="windows-1252" standalone="no"?>
<svg xmlns="http://www.w3.org/2000/svg" xmlns:xlink="http://www.w3.org/1999/xlink" contentStyleType="text/css" height="475px" preserveAspectRatio="none" style="width:835px;height:475px;background:#FFFFFF;" version="1.1" viewBox="0 0 835 475" width="835px" zoomAndPan="magnify"><defs/><g><rect fill="#FFFFFF" height="322.4609" style="stroke:#181818;stroke-width:1.0;" width="10" x="172" y="83.7266"/><rect fill="#FFFFFF" height="29.1328" style="stroke:#181818;stroke-width:1.0;" width="10" x="339" y="171.125"/><rect fill="#FFFFFF" height="29.1328" style="stroke:#181818;stroke-width:1.0;" width="10" x="508" y="112.8594"/><rect fill="none" height="75.3984" style="stroke:#000000;stroke-width:1.5;" width="819" x="10" y="302.6563"/><line style="stroke:#181818;stroke-width:0.5;stroke-dasharray:5.0,5.0;" x1="64" x2="64" y1="52.5938" y2="424.1875"/><line style="stroke:#181818;stroke-width:0.5;stroke-dasharray:5.0,5.0;" x1="177" x2="177" y1="52.5938" y2="424.1875"/><line style="stroke:#181818;stroke-width:0.5;stroke-dasharray:5.0,5.0;" x1="344" x2="344" y1="52.5938" y2="424.1875"/><line style="stroke:#181818;stroke-width:0.5;stroke-dasharray:5.0,5.0;" x1="513" x2="513" y1="52.5938" y2="424.1875"/><line style="stroke:#181818;stroke-width:0.5;stroke-dasharray:5.0,5.0;" x1="628" x2="628" y1="52.5938" y2="424.1875"/><line style="stroke:#181818;stroke-width:0.5;stroke-dasharray:5.0,5.0;" x1="742" x2="742" y1="52.5938" y2="424.1875"/><rect fill="#93D1F7" height="30.2969" rx="2.5" ry="2.5" style="stroke:#000000;stroke-width:0.5;" width="88" x="20" y="21.2969"/><text fill="#000000" font-family="sans-serif" font-size="14" lengthAdjust="spacing" textLength="74" x="27" y="41.292">Client BLE</text><rect fill="#93D1F7" height="30.2969" rx="2.5" ry="2.5" style="stroke:#000000;stroke-width:0.5;" width="88" x="20" y="423.1875"/><text fill="#000000" font-family="sans-serif" font-size="14" lengthAdjust="spacing" textLength="74" x="27" y="443.1826">Client BLE</text><rect fill="#DFF2BF" height="46.5938" rx="2.5" ry="2.5" style="stroke:#000000;stroke-width:0.5;" width="100" x="127" y="5"/><text fill="#000000" font-family="sans-serif" font-size="14" lengthAdjust="spacing" textLength="86" x="134" y="24.9951">Serveur BLE</text><text fill="#000000" font-family="sans-serif" font-size="14" lengthAdjust="spacing" textLength="44" x="155" y="41.292">ESP32</text><rect fill="#DFF2BF" height="46.5938" rx="2.5" ry="2.5" style="stroke:#000000;stroke-width:0.5;" width="100" x="127" y="423.1875"/><text fill="#000000" font-family="sans-serif" font-size="14" lengthAdjust="spacing" textLength="86" x="134" y="443.1826">Serveur BLE</text><text fill="#000000" font-family="sans-serif" font-size="14" lengthAdjust="spacing" textLength="44" x="155" y="459.4795">ESP32</text><rect fill="#DFF2BF" height="30.2969" rx="2.5" ry="2.5" style="stroke:#000000;stroke-width:0.5;" width="164" x="262" y="21.2969"/><text fill="#000000" font-family="sans-serif" font-size="14" lengthAdjust="spacing" textLength="150" x="269" y="41.292">SensorCharacteristic</text><rect fill="#DFF2BF" height="30.2969" rx="2.5" ry="2.5" style="stroke:#000000;stroke-width:0.5;" width="164" x="262" y="423.1875"/><text fill="#000000" font-family="sans-serif" font-size="14" lengthAdjust="spacing" textLength="150" x="269" y="443.1826">SensorCharacteristic</text><rect fill="#DFF2BF" height="30.2969" rx="2.5" ry="2.5" style="stroke:#000000;stroke-width:0.5;" width="154" x="436" y="21.2969"/><text fill="#000000" font-family="sans-serif" font-size="14" lengthAdjust="spacing" textLength="140" x="443" y="41.292">RelayCharacteristic</text><rect fill="#DFF2BF" height="30.2969" rx="2.5" ry="2.5" style="stroke:#000000;stroke-width:0.5;" width="154" x="436" y="423.1875"/><text fill="#000000" font-family="sans-serif" font-size="14" lengthAdjust="spacing" textLength="140" x="443" y="443.1826">RelayCharacteristic</text><rect fill="#FAB1E6" height="30.2969" rx="2.5" ry="2.5" style="stroke:#000000;stroke-width:0.5;" width="56" x="600" y="21.2969"/><text fill="#000000" font-family="sans-serif" font-size="14" lengthAdjust="spacing" textLength="42" x="607" y="41.292">Relais</text><rect fill="#FAB1E6" height="30.2969" rx="2.5" ry="2.5" style="stroke:#000000;stroke-width:0.5;" width="56" x="600" y="423.1875"/><text fill="#000000" font-family="sans-serif" font-size="14" lengthAdjust="spacing" textLength="42" x="607" y="443.1826">Relais</text><rect fill="#FAB1E6" height="46.5938" rx="2.5" ry="2.5" style="stroke:#000000;stroke-width:0.5;" width="153" x="666" y="5"/><text fill="#000000" font-family="sans-serif" font-size="14" lengthAdjust="spacing" textLength="139" x="673" y="24.9951">Capteur d'humidité</text><text fill="#000000" font-family="sans-serif" font-size="14" lengthAdjust="spacing" textLength="41" x="722" y="41.292">du sol</text><rect fill="#FAB1E6" height="46.5938" rx="2.5" ry="2.5" style="stroke:#000000;stroke-width:0.5;" width="153" x="666" y="423.1875"/><text fill="#000000" font-family="sans-serif" font-size="14" lengthAdjust="spacing" textLength="139" x="673" y="443.1826">Capteur d'humidité</text><text fill="#000000" font-family="sans-serif" font-size="14" lengthAdjust="spacing" textLength="41" x="722" y="459.4795">du sol</text><rect fill="#FFFFFF" height="322.4609" style="stroke:#181818;stroke-width:1.0;" width="10" x="172" y="83.7266"/><rect fill="#FFFFFF" height="29.1328" style="stroke:#181818;stroke-width:1.0;" width="10" x="339" y="171.125"/><rect fill="#FFFFFF" height="29.1328" style="stroke:#181818;stroke-width:1.0;" width="10" x="508" y="112.8594"/><polygon fill="#181818" points="160,79.7266,170,83.7266,160,87.7266,164,83.7266" style="stroke:#181818;stroke-width:1.0;"/><line style="stroke:#181818;stroke-width:1.0;" x1="64" x2="166" y1="83.7266" y2="83.7266"/><text fill="#000000" font-family="sans-serif" font-size="13" lengthAdjust="spacing" textLength="68" x="71" y="78.6606">Connexion</text><polygon fill="#181818" points="496,108.8594,506,112.8594,496,116.8594,500,112.8594" style="stroke:#181818;stroke-width:1.0;"/><line style="stroke:#181818;stroke-width:1.0;" x1="182" x2="502" y1="112.8594" y2="112.8594"/><text fill="#000000" font-family="sans-serif" font-size="13" lengthAdjust="spacing" textLength="54" x="189" y="107.7935">Création</text><polygon fill="#181818" points="193,137.9922,183,141.9922,193,145.9922,189,141.9922" style="stroke:#181818;stroke-width:1.0;"/><line style="stroke:#181818;stroke-width:1.0;" x1="187" x2="512" y1="141.9922" y2="141.9922"/><text fill="#000000" font-family="sans-serif" font-size="13" lengthAdjust="spacing" textLength="126" x="199" y="136.9263">Définit les callbacks</text><polygon fill="#181818" points="327,167.125,337,171.125,327,175.125,331,171.125" style="stroke:#181818;stroke-width:1.0;"/><line style="stroke:#181818;stroke-width:1.0;" x1="182" x2="333" y1="171.125" y2="171.125"/><text fill="#000000" font-family="sans-serif" font-size="13" lengthAdjust="spacing" textLength="54" x="189" y="166.0591">Création</text><polygon fill="#181818" points="193,196.2578,183,200.2578,193,204.2578,189,200.2578" style="stroke:#181818;stroke-width:1.0;"/><line style="stroke:#181818;stroke-width:1.0;" x1="187" x2="343" y1="200.2578" y2="200.2578"/><text fill="#000000" font-family="sans-serif" font-size="13" lengthAdjust="spacing" textLength="133" x="199" y="195.1919">Définit les propriétés</text><polygon fill="#181818" points="501,225.3906,511,229.3906,501,233.3906,505,229.3906" style="stroke:#181818;stroke-width:1.0;"/><line style="stroke:#181818;stroke-width:1.0;" x1="64" x2="507" y1="229.3906" y2="229.3906"/><text fill="#000000" font-family="sans-serif" font-size="13" lengthAdjust="spacing" textLength="105" x="71" y="224.3247">Écriture (On/Off)</text><polygon fill="#181818" points="616,254.5234,626,258.5234,616,262.5234,620,258.5234" style="stroke:#181818;stroke-width:1.0;"/><line style="stroke:#181818;stroke-width:1.0;" x1="513" x2="622" y1="258.5234" y2="258.5234"/><text fill="#000000" font-family="sans-serif" font-size="13" lengthAdjust="spacing" textLength="54" x="520" y="253.4575">Contrôle</text><polygon fill="#181818" points="75,283.6563,65,287.6563,75,291.6563,71,287.6563" style="stroke:#181818;stroke-width:1.0;"/><line style="stroke:#181818;stroke-width:1.0;" x1="69" x2="512" y1="287.6563" y2="287.6563"/><text fill="#000000" font-family="sans-serif" font-size="13" lengthAdjust="spacing" textLength="141" x="81" y="282.5903">Notification de l'action</text><path d="M10,302.6563 L88,302.6563 L88,309.7891 L78,319.7891 L10,319.7891 L10,302.6563 " fill="#EEEEEE" style="stroke:#000000;stroke-width:1.5;"/><rect fill="none" height="75.3984" style="stroke:#000000;stroke-width:1.5;" width="819" x="10" y="302.6563"/><text fill="#000000" font-family="sans-serif" font-size="13" font-weight="bold" lengthAdjust="spacing" textLength="33" x="25" y="315.7231">loop</text><text fill="#000000" font-family="sans-serif" font-size="11" font-weight="bold" lengthAdjust="spacing" textLength="192" x="103" y="314.8667">[Mesure de l'humidité du sol]</text><polygon fill="#181818" points="355,336.9219,345,340.9219,355,344.9219,351,340.9219" style="stroke:#181818;stroke-width:1.0;"/><line style="stroke:#181818;stroke-width:1.0;" x1="349" x2="741.5" y1="340.9219" y2="340.9219"/><text fill="#000000" font-family="sans-serif" font-size="13" lengthAdjust="spacing" textLength="127" x="361" y="335.856">Lecture de la valeur</text><polygon fill="#181818" points="75,366.0547,65,370.0547,75,374.0547,71,370.0547" style="stroke:#181818;stroke-width:1.0;"/><line style="stroke:#181818;stroke-width:1.0;" x1="69" x2="343" y1="370.0547" y2="370.0547"/><text fill="#000000" font-family="sans-serif" font-size="13" lengthAdjust="spacing" textLength="151" x="81" y="364.9888">Notification de la valeur</text><polygon fill="#181818" points="165,402.1875,175,406.1875,165,410.1875,169,406.1875" style="stroke:#181818;stroke-width:1.0;"/><line style="stroke:#181818;stroke-width:1.0;" x1="64" x2="171" y1="406.1875" y2="406.1875"/><text fill="#000000" font-family="sans-serif" font-size="13" lengthAdjust="spacing" textLength="84" x="71" y="401.1216">Déconnexion</text><!--SRC=[ZLBBJiCm4BpxArPmA1mGQf50SE3Grway15Skhhs1LLqxMZiLV0AVaZj_a1_3ITey84Za4jaxExCpQxyXcqgMMtYK74XHAcsOEjR8CsSSmzf8jH5-41Ohh-mogsie75zVw75o1I9jGN0qCuJnFrqjZa1wKDNnVup7y-LoCbts-PwHTvXnIVXY5y-F5vEArvVN_1DglUFPMzHH0PbyBEt1XqA_uGcD_1Z0y-7-lqaaSZt6I_ZDJhub_96JJ4FfIu_UiYrf2aN-OdK6tfbwPaUcDYI4g5E4izkzRxY1cRCMtybP4OUddGnuo4JiCH7T62aRkCXbw3MqFbjWLsDUv0bP2c0mRb8QiuxElT0umD1HRUCUbksiemFzKpXbbp8LUKoefzsXwGJKjLnyAgQGCSB9Wpr_I9BJlj7gK6SPkFWos2_lIM_WtWLAI5KsG2EOKJb4j2ICSodSeIyrgaApJAXtAI1-xIv_nRD25GxD4dRIn3THz_II-NkKfWcj7dmeCKlLl9LUV2NW6m00]--></g></svg>