<?xml version="1.0" encoding="windows-1252" standalone="no"?>
<svg xmlns="http://www.w3.org/2000/svg" xmlns:xlink="http://www.w3.org/1999/xlink" contentStyleType="text/css" height="915px" preserveAspectRatio="none" style="width:1126px;height:915px;background:#FFFFFF;" version="1.1" viewBox="0 0 1126 915" width="1126px" zoomAndPan="magnify"><defs/><g><rect fill="#FFFFFF" height="692.3203" style="stroke:#181818;stroke-width:1.0;" width="10" x="257" y="107.5938"/><rect fill="#FFFFFF" height="87.3984" style="stroke:#181818;stroke-width:1.0;" width="10" x="602.5" y="522.5859"/><rect fill="#FFFFFF" height="29.1328" style="stroke:#181818;stroke-width:1.0;" width="10" x="747.5" y="186.9922"/><rect fill="#FFFFFF" height="29.1328" style="stroke:#181818;stroke-width:1.0;" width="10" x="747.5" y="420.0547"/><rect fill="#FFFFFF" height="116.5313" style="stroke:#181818;stroke-width:1.0;" width="10" x="747.5" y="493.4531"/><rect fill="#FFFFFF" height="29.1328" style="stroke:#181818;stroke-width:1.0;" width="10" x="747.5" y="654.25"/><rect fill="#FFFFFF" height="29.1328" style="stroke:#181818;stroke-width:1.0;" width="10" x="747.5" y="770.7813"/><rect fill="#FFFFFF" height="29.1328" style="stroke:#181818;stroke-width:1.0;" width="10" x="885.5" y="361.7891"/><rect fill="#FFFFFF" height="58.2656" style="stroke:#181818;stroke-width:1.0;" width="10" x="885.5" y="551.7188"/><rect fill="#FFFFFF" height="29.1328" style="stroke:#181818;stroke-width:1.0;" width="10" x="1058.5" y="245.2578"/><rect fill="#FFFFFF" height="29.1328" style="stroke:#181818;stroke-width:1.0;" width="10" x="1058.5" y="303.5234"/><rect fill="#FFFFFF" height="29.1328" style="stroke:#181818;stroke-width:1.0;" width="10" x="1058.5" y="580.8516"/><rect fill="#FFFFFF" height="29.1328" style="stroke:#181818;stroke-width:1.0;" width="10" x="1058.5" y="712.5156"/><line style="stroke:#181818;stroke-width:0.5;stroke-dasharray:5.0,5.0;" x1="87" x2="87" y1="97.5938" y2="817.9141"/><line style="stroke:#181818;stroke-width:0.5;stroke-dasharray:5.0,5.0;" x1="262" x2="262" y1="97.5938" y2="817.9141"/><line style="stroke:#181818;stroke-width:0.5;stroke-dasharray:5.0,5.0;" x1="451" x2="451" y1="97.5938" y2="817.9141"/><line style="stroke:#181818;stroke-width:0.5;stroke-dasharray:5.0,5.0;" x1="607" x2="607" y1="97.5938" y2="817.9141"/><line style="stroke:#181818;stroke-width:0.5;stroke-dasharray:5.0,5.0;" x1="752" x2="752" y1="97.5938" y2="817.9141"/><line style="stroke:#181818;stroke-width:0.5;stroke-dasharray:5.0,5.0;" x1="890" x2="890" y1="97.5938" y2="817.9141"/><line style="stroke:#181818;stroke-width:0.5;stroke-dasharray:5.0,5.0;" x1="1063.5" x2="1063.5" y1="97.5938" y2="817.9141"/><text fill="#000000" font-family="sans-serif" font-size="14" lengthAdjust="spacing" textLength="73" x="48" y="77.9951">Utilisateur</text><text fill="#000000" font-family="sans-serif" font-size="14" lengthAdjust="spacing" textLength="159" x="5" y="94.292">(Client MQTT externe)</text><ellipse cx="87.5" cy="13.5" fill="#E2E2F0" rx="8" ry="8" style="stroke:#181818;stroke-width:0.5;"/><path d="M87.5,21.5 L87.5,48.5 M74.5,29.5 L100.5,29.5 M87.5,48.5 L74.5,63.5 M87.5,48.5 L100.5,63.5 " fill="none" style="stroke:#181818;stroke-width:0.5;"/><text fill="#000000" font-family="sans-serif" font-size="14" lengthAdjust="spacing" textLength="73" x="48" y="829.9092">Utilisateur</text><text fill="#000000" font-family="sans-serif" font-size="14" lengthAdjust="spacing" textLength="159" x="5" y="846.2061">(Client MQTT externe)</text><ellipse cx="87.5" cy="858.0078" fill="#E2E2F0" rx="8" ry="8" style="stroke:#181818;stroke-width:0.5;"/><path d="M87.5,866.0078 L87.5,893.0078 M74.5,874.0078 L100.5,874.0078 M87.5,893.0078 L74.5,908.0078 M87.5,893.0078 L100.5,908.0078 " fill="none" style="stroke:#181818;stroke-width:0.5;"/><rect fill="#ADD8E6" height="30.2969" rx="2.5" ry="2.5" style="stroke:#181818;stroke-width:0.5;" width="164" x="180" y="66.2969"/><text fill="#000000" font-family="sans-serif" font-size="14" lengthAdjust="spacing" textLength="150" x="187" y="86.292">Programme Principal</text><rect fill="#ADD8E6" height="30.2969" rx="2.5" ry="2.5" style="stroke:#181818;stroke-width:0.5;" width="164" x="180" y="816.9141"/><text fill="#000000" font-family="sans-serif" font-size="14" lengthAdjust="spacing" textLength="150" x="187" y="836.9092">Programme Principal</text><text fill="#000000" font-family="sans-serif" font-size="14" lengthAdjust="spacing" textLength="136" x="380" y="94.292">Fichier config.yaml</text><path d="M433,45.2969 C433,35.2969 451,35.2969 451,35.2969 C451,35.2969 469,35.2969 469,45.2969 L469,71.2969 C469,81.2969 451,81.2969 451,81.2969 C451,81.2969 433,81.2969 433,71.2969 L433,45.2969 " fill="#E2E2F0" style="stroke:#181818;stroke-width:1.5;"/><path d="M433,45.2969 C433,55.2969 451,55.2969 451,55.2969 C451,55.2969 469,55.2969 469,45.2969 " fill="none" style="stroke:#181818;stroke-width:1.5;"/><text fill="#000000" font-family="sans-serif" font-size="14" lengthAdjust="spacing" textLength="136" x="380" y="829.9092">Fichier config.yaml</text><path d="M433,843.2109 C433,833.2109 451,833.2109 451,833.2109 C451,833.2109 469,833.2109 469,843.2109 L469,869.2109 C469,879.2109 451,879.2109 451,879.2109 C451,879.2109 433,879.2109 433,869.2109 L433,843.2109 " fill="#E2E2F0" style="stroke:#181818;stroke-width:1.5;"/><path d="M433,843.2109 C433,853.2109 451,853.2109 451,853.2109 C451,853.2109 469,853.2109 469,843.2109 " fill="none" style="stroke:#181818;stroke-width:1.5;"/><rect fill="#ADD8E6" height="30.2969" rx="2.5" ry="2.5" style="stroke:#181818;stroke-width:0.5;" width="151" x="532" y="66.2969"/><text fill="#000000" font-family="sans-serif" font-size="14" lengthAdjust="spacing" textLength="137" x="539" y="86.292">Gestionnaire MQTT</text><rect fill="#ADD8E6" height="30.2969" rx="2.5" ry="2.5" style="stroke:#181818;stroke-width:0.5;" width="151" x="532" y="816.9141"/><text fill="#000000" font-family="sans-serif" font-size="14" lengthAdjust="spacing" textLength="137" x="539" y="836.9092">Gestionnaire MQTT</text><rect fill="#E2E2F0" height="30.2969" rx="2.5" ry="2.5" style="stroke:#181818;stroke-width:0.5;" width="119" x="693" y="66.2969"/><text fill="#000000" font-family="sans-serif" font-size="14" lengthAdjust="spacing" textLength="105" x="700" y="86.292">BROKER MQTT</text><rect fill="#E2E2F0" height="30.2969" rx="2.5" ry="2.5" style="stroke:#181818;stroke-width:0.5;" width="119" x="693" y="816.9141"/><text fill="#000000" font-family="sans-serif" font-size="14" lengthAdjust="spacing" textLength="105" x="700" y="836.9092">BROKER MQTT</text><rect fill="#ADD8E6" height="30.2969" rx="2.5" ry="2.5" style="stroke:#181818;stroke-width:0.5;" width="137" x="822" y="66.2969"/><text fill="#000000" font-family="sans-serif" font-size="14" lengthAdjust="spacing" textLength="123" x="829" y="86.292">Gestionnaire BLE</text><rect fill="#ADD8E6" height="30.2969" rx="2.5" ry="2.5" style="stroke:#181818;stroke-width:0.5;" width="137" x="822" y="816.9141"/><text fill="#000000" font-family="sans-serif" font-size="14" lengthAdjust="spacing" textLength="123" x="829" y="836.9092">Gestionnaire BLE</text><rect fill="#E2E2F0" height="30.2969" rx="2.5" ry="2.5" style="stroke:#181818;stroke-width:0.5;" width="114" x="1006.5" y="66.2969"/><text fill="#000000" font-family="sans-serif" font-size="14" lengthAdjust="spacing" textLength="100" x="1013.5" y="86.292">Dispositif BLE</text><rect fill="#E2E2F0" height="30.2969" rx="2.5" ry="2.5" style="stroke:#181818;stroke-width:0.5;" width="114" x="1006.5" y="816.9141"/><text fill="#000000" font-family="sans-serif" font-size="14" lengthAdjust="spacing" textLength="100" x="1013.5" y="836.9092">Dispositif BLE</text><rect fill="#FFFFFF" height="692.3203" style="stroke:#181818;stroke-width:1.0;" width="10" x="257" y="107.5938"/><rect fill="#FFFFFF" height="87.3984" style="stroke:#181818;stroke-width:1.0;" width="10" x="602.5" y="522.5859"/><rect fill="#FFFFFF" height="29.1328" style="stroke:#181818;stroke-width:1.0;" width="10" x="747.5" y="186.9922"/><rect fill="#FFFFFF" height="29.1328" style="stroke:#181818;stroke-width:1.0;" width="10" x="747.5" y="420.0547"/><rect fill="#FFFFFF" height="116.5313" style="stroke:#181818;stroke-width:1.0;" width="10" x="747.5" y="493.4531"/><rect fill="#FFFFFF" height="29.1328" style="stroke:#181818;stroke-width:1.0;" width="10" x="747.5" y="654.25"/><rect fill="#FFFFFF" height="29.1328" style="stroke:#181818;stroke-width:1.0;" width="10" x="747.5" y="770.7813"/><rect fill="#FFFFFF" height="29.1328" style="stroke:#181818;stroke-width:1.0;" width="10" x="885.5" y="361.7891"/><rect fill="#FFFFFF" height="58.2656" style="stroke:#181818;stroke-width:1.0;" width="10" x="885.5" y="551.7188"/><rect fill="#FFFFFF" height="29.1328" style="stroke:#181818;stroke-width:1.0;" width="10" x="1058.5" y="245.2578"/><rect fill="#FFFFFF" height="29.1328" style="stroke:#181818;stroke-width:1.0;" width="10" x="1058.5" y="303.5234"/><rect fill="#FFFFFF" height="29.1328" style="stroke:#181818;stroke-width:1.0;" width="10" x="1058.5" y="580.8516"/><rect fill="#FFFFFF" height="29.1328" style="stroke:#181818;stroke-width:1.0;" width="10" x="1058.5" y="712.5156"/><polygon fill="#181818" points="439,124.7266,449,128.7266,439,132.7266,443,128.7266" style="stroke:#181818;stroke-width:1.0;"/><line style="stroke:#181818;stroke-width:1.0;" x1="267" x2="445" y1="128.7266" y2="128.7266"/><text fill="#000000" font-family="sans-serif" font-size="13" lengthAdjust="spacing" textLength="118" x="274" y="123.6606">Lit la configuration</text><polygon fill="#181818" points="278,153.8594,268,157.8594,278,161.8594,274,157.8594" style="stroke:#181818;stroke-width:1.0;"/><line style="stroke:#181818;stroke-width:1.0;stroke-dasharray:2.0,2.0;" x1="272" x2="450" y1="157.8594" y2="157.8594"/><text fill="#000000" font-family="sans-serif" font-size="13" lengthAdjust="spacing" textLength="160" x="284" y="152.7935">Retourne les paramètres</text><polygon fill="#181818" points="735.5,182.9922,745.5,186.9922,735.5,190.9922,739.5,186.9922" style="stroke:#181818;stroke-width:1.0;"/><line style="stroke:#181818;stroke-width:1.0;" x1="267" x2="741.5" y1="186.9922" y2="186.9922"/><text fill="#000000" font-family="sans-serif" font-size="13" lengthAdjust="spacing" textLength="166" x="274" y="181.9263">Connecte au broker MQTT</text><polygon fill="#181818" points="278,212.125,268,216.125,278,220.125,274,216.125" style="stroke:#181818;stroke-width:1.0;"/><line style="stroke:#181818;stroke-width:1.0;stroke-dasharray:2.0,2.0;" x1="272" x2="751.5" y1="216.125" y2="216.125"/><text fill="#000000" font-family="sans-serif" font-size="13" lengthAdjust="spacing" textLength="115" x="284" y="211.0591">Connexion établie</text><polygon fill="#181818" points="1046.5,241.2578,1056.5,245.2578,1046.5,249.2578,1050.5,245.2578" style="stroke:#181818;stroke-width:1.0;"/><line style="stroke:#181818;stroke-width:1.0;" x1="267" x2="1052.5" y1="245.2578" y2="245.2578"/><text fill="#000000" font-family="sans-serif" font-size="13" lengthAdjust="spacing" textLength="190" x="274" y="240.1919">Recherche des dispositifs BLE</text><polygon fill="#181818" points="278,270.3906,268,274.3906,278,278.3906,274,274.3906" style="stroke:#181818;stroke-width:1.0;"/><line style="stroke:#181818;stroke-width:1.0;stroke-dasharray:2.0,2.0;" x1="272" x2="1062.5" y1="274.3906" y2="274.3906"/><text fill="#000000" font-family="sans-serif" font-size="13" lengthAdjust="spacing" textLength="105" x="284" y="269.3247">Dispositif trouvé</text><polygon fill="#181818" points="1046.5,299.5234,1056.5,303.5234,1046.5,307.5234,1050.5,303.5234" style="stroke:#181818;stroke-width:1.0;"/><line style="stroke:#181818;stroke-width:1.0;" x1="267" x2="1052.5" y1="303.5234" y2="303.5234"/><text fill="#000000" font-family="sans-serif" font-size="13" lengthAdjust="spacing" textLength="169" x="274" y="298.4575">Connecte au dispositif BLE</text><polygon fill="#181818" points="278,328.6563,268,332.6563,278,336.6563,274,332.6563" style="stroke:#181818;stroke-width:1.0;"/><line style="stroke:#181818;stroke-width:1.0;stroke-dasharray:2.0,2.0;" x1="272" x2="1062.5" y1="332.6563" y2="332.6563"/><text fill="#000000" font-family="sans-serif" font-size="13" lengthAdjust="spacing" textLength="115" x="284" y="327.5903">Connexion établie</text><polygon fill="#181818" points="873.5,357.7891,883.5,361.7891,873.5,365.7891,877.5,361.7891" style="stroke:#181818;stroke-width:1.0;"/><line style="stroke:#181818;stroke-width:1.0;" x1="267" x2="879.5" y1="361.7891" y2="361.7891"/><text fill="#000000" font-family="sans-serif" font-size="13" lengthAdjust="spacing" textLength="188" x="274" y="356.7231">Souscrit aux notifications BLE</text><polygon fill="#181818" points="278,386.9219,268,390.9219,278,394.9219,274,390.9219" style="stroke:#181818;stroke-width:1.0;"/><line style="stroke:#181818;stroke-width:1.0;stroke-dasharray:2.0,2.0;" x1="272" x2="889.5" y1="390.9219" y2="390.9219"/><text fill="#000000" font-family="sans-serif" font-size="13" lengthAdjust="spacing" textLength="128" x="284" y="385.856">Souscription réussie</text><polygon fill="#181818" points="735.5,416.0547,745.5,420.0547,735.5,424.0547,739.5,420.0547" style="stroke:#181818;stroke-width:1.0;"/><line style="stroke:#181818;stroke-width:1.0;" x1="87.5" x2="741.5" y1="420.0547" y2="420.0547"/><text fill="#000000" font-family="sans-serif" font-size="13" lengthAdjust="spacing" textLength="215" x="94.5" y="414.9888">S'abonne à MQTT_TOPIC_SENSOR</text><polygon fill="#181818" points="98.5,445.1875,88.5,449.1875,98.5,453.1875,94.5,449.1875" style="stroke:#181818;stroke-width:1.0;"/><line style="stroke:#181818;stroke-width:1.0;stroke-dasharray:2.0,2.0;" x1="92.5" x2="751.5" y1="449.1875" y2="449.1875"/><text fill="#000000" font-family="sans-serif" font-size="13" lengthAdjust="spacing" textLength="125" x="104.5" y="444.1216">Abonnement réussi</text><polygon fill="#181818" points="735.5,489.4531,745.5,493.4531,735.5,497.4531,739.5,493.4531" style="stroke:#181818;stroke-width:1.0;"/><line style="stroke:#181818;stroke-width:1.0;" x1="87.5" x2="741.5" y1="493.4531" y2="493.4531"/><text fill="#000000" font-family="sans-serif" font-size="13" lengthAdjust="spacing" textLength="125" x="94.5" y="473.2544">Publie message sur</text><text fill="#000000" font-family="sans-serif" font-size="13" lengthAdjust="spacing" textLength="203" x="94.5" y="488.3872">MQTT_TOPIC_RELAY_COMMAND</text><polygon fill="#181818" points="623.5,518.5859,613.5,522.5859,623.5,526.5859,619.5,522.5859" style="stroke:#181818;stroke-width:1.0;"/><line style="stroke:#181818;stroke-width:1.0;" x1="617.5" x2="746.5" y1="522.5859" y2="522.5859"/><text fill="#000000" font-family="sans-serif" font-size="13" lengthAdjust="spacing" textLength="92" x="629.5" y="517.52">on_message()</text><polygon fill="#181818" points="873.5,547.7188,883.5,551.7188,873.5,555.7188,877.5,551.7188" style="stroke:#181818;stroke-width:1.0;"/><line style="stroke:#181818;stroke-width:1.0;" x1="612.5" x2="879.5" y1="551.7188" y2="551.7188"/><text fill="#000000" font-family="sans-serif" font-size="13" lengthAdjust="spacing" textLength="157" x="619.5" y="546.6528">handle_mqtt_message()</text><polygon fill="#181818" points="1046.5,576.8516,1056.5,580.8516,1046.5,584.8516,1050.5,580.8516" style="stroke:#181818;stroke-width:1.0;"/><line style="stroke:#181818;stroke-width:1.0;" x1="895.5" x2="1052.5" y1="580.8516" y2="580.8516"/><text fill="#000000" font-family="sans-serif" font-size="13" lengthAdjust="spacing" textLength="128" x="902.5" y="575.7856">Commande le relais</text><polygon fill="#181818" points="901.5,605.9844,891.5,609.9844,901.5,613.9844,897.5,609.9844" style="stroke:#181818;stroke-width:1.0;"/><line style="stroke:#181818;stroke-width:1.0;stroke-dasharray:2.0,2.0;" x1="895.5" x2="1062.5" y1="609.9844" y2="609.9844"/><text fill="#000000" font-family="sans-serif" font-size="13" lengthAdjust="spacing" textLength="139" x="907.5" y="604.9185">Commande exécutée</text><polygon fill="#181818" points="768.5,650.25,758.5,654.25,768.5,658.25,764.5,654.25" style="stroke:#181818;stroke-width:1.0;"/><line style="stroke:#181818;stroke-width:1.0;" x1="762.5" x2="1062.5" y1="654.25" y2="654.25"/><text fill="#000000" font-family="sans-serif" font-size="13" lengthAdjust="spacing" textLength="194" x="774.5" y="634.0513">Publie données du capteur sur</text><text fill="#000000" font-family="sans-serif" font-size="13" lengthAdjust="spacing" textLength="140" x="774.5" y="649.1841">MQTT_TOPIC_SENSOR</text><polygon fill="#181818" points="98.5,679.3828,88.5,683.3828,98.5,687.3828,94.5,683.3828" style="stroke:#181818;stroke-width:1.0;"/><line style="stroke:#181818;stroke-width:1.0;" x1="92.5" x2="751.5" y1="683.3828" y2="683.3828"/><text fill="#000000" font-family="sans-serif" font-size="13" lengthAdjust="spacing" textLength="194" x="104.5" y="678.3169">Transmet données du capteur</text><polygon fill="#181818" points="1046.5,708.5156,1056.5,712.5156,1046.5,716.5156,1050.5,712.5156" style="stroke:#181818;stroke-width:1.0;"/><line style="stroke:#181818;stroke-width:1.0;" x1="267" x2="1052.5" y1="712.5156" y2="712.5156"/><text fill="#000000" font-family="sans-serif" font-size="13" lengthAdjust="spacing" textLength="158" x="274" y="707.4497">Déconnecte du dispositif</text><polygon fill="#181818" points="278,737.6484,268,741.6484,278,745.6484,274,741.6484" style="stroke:#181818;stroke-width:1.0;"/><line style="stroke:#181818;stroke-width:1.0;stroke-dasharray:2.0,2.0;" x1="272" x2="1062.5" y1="741.6484" y2="741.6484"/><text fill="#000000" font-family="sans-serif" font-size="13" lengthAdjust="spacing" textLength="134" x="284" y="736.5825">Déconnexion réussie</text><polygon fill="#181818" points="735.5,766.7813,745.5,770.7813,735.5,774.7813,739.5,770.7813" style="stroke:#181818;stroke-width:1.0;"/><line style="stroke:#181818;stroke-width:1.0;" x1="267" x2="741.5" y1="770.7813" y2="770.7813"/><text fill="#000000" font-family="sans-serif" font-size="13" lengthAdjust="spacing" textLength="142" x="274" y="765.7153">Déconnecte du broker</text><polygon fill="#181818" points="273,795.9141,263,799.9141,273,803.9141,269,799.9141" style="stroke:#181818;stroke-width:1.0;"/><line style="stroke:#181818;stroke-width:1.0;stroke-dasharray:2.0,2.0;" x1="267" x2="751.5" y1="799.9141" y2="799.9141"/><text fill="#000000" font-family="sans-serif" font-size="13" lengthAdjust="spacing" textLength="134" x="279" y="794.8481">Déconnexion réussie</text><!--SRC=[ZLHBZjf04Dtx52MooCnYSW0lHk8tIHGO2915f4Yei6kW5RjD-ZCYjyaodCCNItTZCzssWImGTD6ltgjwLOs9AWHyKonZ4XLf0IYXvvr_yBjXneWhc7vThO0EYWId-rwqHw5OmlPe_khDHR4LcES4Sy6uZMOzcwcAmxi9s-xK8DCKfQXmWvAWzyII7IC1IS5VsFR3RynFeA4xFx6CGfAF91KhE4ScoAbnj-sFJyZJp6JoQ0BaO37xCbw4c2kv1vEnksQ-RsKUCRal95FinKT54IQAlPe6rXs8eheL3uzUWH33X2d8i6g25cXbHDwD1mEeiJ4iI1NQ600PIJ1AC2__Aa4ooE-SYYqDfyHeG0qRKVmqPRZ2pzhSoLqEIHpmO7H0UJHc6VkZb4AKJsSATigI7GdpWTH8IyzzEJNaZBO72mWPlJOgKUZNykWpkews2Ftoqi26MspNw-jWgwSWXcMXPIACPQWFm0j3o19dMRlC2XHv-516bMjluI3AevQofQHE4lah-cRnyZrkR35G_d6XzMes_pnSByVFozdYaj5-gXZwBa5kDxpIq3QxctokRUiW9obnIo3jO-69M8md_U_huMmwxJ-FEhKy1iiRGy7NLRAx-n1Gjy6_txHcvtwjyrzATQMvuCZRDEMvYTd50a4PCjazHG7b6KI7yfXeLHvRazHjPwF35yBHYRNPyDGOPfZCacb8SEzSQJR_oWGq1s0baCkSL5VU_zZxaQcytiJKtyIREry13rV6l-jPQn2UNhRRZzfDkbDzNg32_WC0]--></g></svg>